HIERARCHY
ROOT Hips
{
    OFFSET   0.000000   0.000000   0.000000
    CHANNELS 6 Xposition Yposition Zposition Zrotation Xrotation Yrotation
    JOINT Chest
    {
        OFFSET   0.000000   8.007230   0.000000
        CHANNELS 3 Zrotation Xrotation Yrotation
        JOINT Chest2
        {
            OFFSET   0.000000  22.077100   0.000000
            CHANNELS 3 Zrotation Xrotation Yrotation
            JOINT Neck
            {
                OFFSET   0.000000  23.255100   0.000000
                CHANNELS 3 Zrotation Xrotation Yrotation
                JOINT Head
                {
                    OFFSET   0.000000  14.370100   1.956600
                    CHANNELS 3 Zrotation Xrotation Yrotation
                    End Site
                    {
                        OFFSET   0.000000  19.566000   0.000000
                    }
                }
            }
            JOINT LeftCollar
            {
                OFFSET   3.911900  19.017000  -0.467063
                CHANNELS 3 Zrotation Xrotation Yrotation
                JOINT LeftShoulder
                {
                    OFFSET  10.383700   0.000000   0.000000
                    CHANNELS 3 Zrotation Xrotation Yrotation
                    JOINT LeftElbow
                    {
                        OFFSET  26.662100   0.001193   0.000980
                        CHANNELS 3 Zrotation Xrotation Yrotation
                        JOINT LeftWrist
                        {
                            OFFSET  28.869000  -0.000059  -0.000082
                            CHANNELS 3 Zrotation Xrotation Yrotation
                            JOINT LeftFinger0
                            {
                                OFFSET   2.044650  -2.323450   3.252850
                                CHANNELS 3 Zrotation Xrotation Yrotation
                                JOINT LeftFinger01
                                {
                                    OFFSET   3.088130   0.000000   0.000000
                                    CHANNELS 3 Zrotation Xrotation Yrotation
                                    JOINT LeftFinger02
                                    {
                                        OFFSET   2.639460   0.000000   0.000000
                                        CHANNELS 3 Zrotation Xrotation Yrotation
                                        End Site
                                        {
                                            OFFSET   2.582190   0.000000   0.000000
                                        }
                                    }
                                }
                            }
                            JOINT LeftFinger1
                            {
                                OFFSET   8.364480   0.000000   3.252850
                                CHANNELS 3 Zrotation Xrotation Yrotation
                                JOINT LeftFinger11
                                {
                                    OFFSET   4.646930   0.000000   0.000000
                                    CHANNELS 3 Zrotation Xrotation Yrotation
                                    JOINT LeftFinger12
                                    {
                                        OFFSET   2.323470   0.000000   0.000000
                                        CHANNELS 3 Zrotation Xrotation Yrotation
                                        End Site
                                        {
                                            OFFSET   2.273050   0.000000   0.000000
                                        }
                                    }
                                }
                            }
                            JOINT LeftFinger2
                            {
                                OFFSET   8.364490   0.000016   1.078090
                                CHANNELS 3 Zrotation Xrotation Yrotation
                                JOINT LeftFinger21
                                {
                                    OFFSET   5.111610   0.000000   0.000000
                                    CHANNELS 3 Zrotation Xrotation Yrotation
                                    JOINT LeftFinger22
                                    {
                                        OFFSET   2.788150   0.000016   0.000000
                                        CHANNELS 3 Zrotation Xrotation Yrotation
                                        End Site
                                        {
                                            OFFSET   2.727660   0.000000   0.000000
                                        }
                                    }
                                }
                            }
                            JOINT LeftFinger3
                            {
                                OFFSET   7.899780   0.000015  -1.078090
                                CHANNELS 3 Zrotation Xrotation Yrotation
                                JOINT LeftFinger31
                                {
                                    OFFSET   4.646930   0.000000   0.000000
                                    CHANNELS 3 Zrotation Xrotation Yrotation
                                    JOINT LeftFinger32
                                    {
                                        OFFSET   2.323470   0.000000   0.000000
                                        CHANNELS 3 Zrotation Xrotation Yrotation
                                        End Site
                                        {
                                            OFFSET   2.273050   0.000000   0.000000
                                        }
                                    }
                                }
                            }
                            JOINT LeftFinger4
                            {
                                OFFSET   7.435090   0.000000  -3.252850
                                CHANNELS 3 Zrotation Xrotation Yrotation
                                JOINT LeftFinger41
                                {
                                    OFFSET   3.717550   0.000000   0.000000
                                    CHANNELS 3 Zrotation Xrotation Yrotation
                                    JOINT LeftFinger42
                                    {
                                        OFFSET   1.858770   0.000000   0.000000
                                        CHANNELS 3 Zrotation Xrotation Yrotation
                                        End Site
                                        {
                                            OFFSET   1.818440   0.000000   0.000000
                                        }
                                    }
                                }
                            }
                        }
                    }
                }
            }
            JOINT RightCollar
            {
                OFFSET  -3.911910  19.017000  -0.467062
                CHANNELS 3 Zrotation Xrotation Yrotation
                JOINT RightShoulder
                {
                    OFFSET -10.383700   0.000014   0.000000
                    CHANNELS 3 Zrotation Xrotation Yrotation
                    JOINT RightElbow
                    {
                        OFFSET -26.662100   0.001225   0.001091
                        CHANNELS 3 Zrotation Xrotation Yrotation
                        JOINT RightWrist
                        {
                            OFFSET -28.869000  -0.000020  -0.000085
                            CHANNELS 3 Zrotation Xrotation Yrotation
                            JOINT RightFinger0
                            {
                                OFFSET  -2.044650  -2.323490   3.252850
                                CHANNELS 3 Zrotation Xrotation Yrotation
                                JOINT RightFinger01
                                {
                                    OFFSET  -3.088130   0.000000   0.000000
                                    CHANNELS 3 Zrotation Xrotation Yrotation
                                    JOINT RightFinger02
                                    {
                                        OFFSET  -2.639460   0.000000   0.000000
                                        CHANNELS 3 Zrotation Xrotation Yrotation
                                        End Site
                                        {
                                            OFFSET  -2.582190   0.000000   0.000000
                                        }
                                    }
                                }
                            }
                            JOINT RightFinger1
                            {
                                OFFSET  -8.364480   0.000000   3.252850
                                CHANNELS 3 Zrotation Xrotation Yrotation
                                JOINT RightFinger11
                                {
                                    OFFSET  -4.646930   0.000000   0.000000
                                    CHANNELS 3 Zrotation Xrotation Yrotation
                                    JOINT RightFinger12
                                    {
                                        OFFSET  -2.323470   0.000000   0.000000
                                        CHANNELS 3 Zrotation Xrotation Yrotation
                                        End Site
                                        {
                                            OFFSET  -2.273050   0.000000   0.000000
                                        }
                                    }
                                }
                            }
                            JOINT RightFinger2
                            {
                                OFFSET  -8.364480   0.000000   1.078090
                                CHANNELS 3 Zrotation Xrotation Yrotation
                                JOINT RightFinger21
                                {
                                    OFFSET  -5.111620   0.000000   0.000000
                                    CHANNELS 3 Zrotation Xrotation Yrotation
                                    JOINT RightFinger22
                                    {
                                        OFFSET  -2.788160   0.000000   0.000000
                                        CHANNELS 3 Zrotation Xrotation Yrotation
                                        End Site
                                        {
                                            OFFSET  -2.727660   0.000000   0.000000
                                        }
                                    }
                                }
                            }
                            JOINT RightFinger3
                            {
                                OFFSET  -7.899780   0.000000  -1.078090
                                CHANNELS 3 Zrotation Xrotation Yrotation
                                JOINT RightFinger31
                                {
                                    OFFSET  -4.646930   0.000000   0.000000
                                    CHANNELS 3 Zrotation Xrotation Yrotation
                                    JOINT RightFinger32
                                    {
                                        OFFSET  -2.323470   0.000000   0.000000
                                        CHANNELS 3 Zrotation Xrotation Yrotation
                                        End Site
                                        {
                                            OFFSET  -2.273050   0.000000   0.000000
                                        }
                                    }
                                }
                            }
                            JOINT RightFinger4
                            {
                                OFFSET  -7.435090   0.000000  -3.252850
                                CHANNELS 3 Zrotation Xrotation Yrotation
                                JOINT RightFinger41
                                {
                                    OFFSET  -3.717550   0.000000   0.000000
                                    CHANNELS 3 Zrotation Xrotation Yrotation
                                    JOINT RightFinger42
                                    {
                                        OFFSET  -1.858760   0.000000   0.000000
                                        CHANNELS 3 Zrotation Xrotation Yrotation
                                        End Site
                                        {
                                            OFFSET  -1.818440   0.000000   0.000000
                                        }
                                    }
                                }
                            }
                        }
                    }
                }
            }
        }
    }
    JOINT LeftHip
    {
        OFFSET   9.783030   0.000000   0.000000
        CHANNELS 3 Zrotation Xrotation Yrotation
        JOINT LeftKnee
        {
            OFFSET   0.000063 -41.789100   0.000608
            CHANNELS 3 Zrotation Xrotation Yrotation
            JOINT LeftAnkle
            {
                OFFSET   0.000048 -41.133200  -0.000184
                CHANNELS 3 Zrotation Xrotation Yrotation
                JOINT LeftToe
                {
                    OFFSET   0.000000  -6.358960  14.674500
                    CHANNELS 3 Zrotation Xrotation Yrotation
                    End Site
                    {
                        OFFSET   0.000000   0.000000   3.913200
                    }
                }
            }
        }
    }
    JOINT RightHip
    {
        OFFSET  -9.783030   0.000000   0.000000
        CHANNELS 3 Zrotation Xrotation Yrotation
        JOINT RightKnee
        {
            OFFSET   0.000071 -41.789100   0.001239
            CHANNELS 3 Zrotation Xrotation Yrotation
            JOINT RightAnkle
            {
                OFFSET   0.000037 -41.133200  -0.000166
                CHANNELS 3 Zrotation Xrotation Yrotation
                JOINT RightToe
                {
                    OFFSET   0.000000  -6.358960  14.674500
                    CHANNELS 3 Zrotation Xrotation Yrotation
                    End Site
                    {
                        OFFSET   0.000000   0.000000   3.913200
                    }
                }
            }
        }
    }
}
MOTION
Frames: 4
Frame Time:   0.016667
 -0.602397  89.559100   0.705863  -2.077990  -4.770750  -3.831830   0.529134   3.390370   0.061031   1.057420   6.781150   0.090866   1.962590   0.254099  -0.005765   3.228310   0.515817   5.754590  -3.143380   0.085219   3.261890 -74.124000  26.199400  -1.214480  -2.614210  -7.152060 -16.998900  15.742800 -12.737800   6.653620  39.095400  32.620800 -58.469600 -32.627100  -0.005296  -0.003338 -11.300100   0.002428  -0.036605 -32.365700   7.912790 -12.256900 -27.178300   0.017071  -0.002335 -19.022400   0.012000   0.001387 -28.722100   1.601970  -2.893040 -40.570200   0.032544   0.007773 -27.019800   0.017741   0.013550 -28.625600   1.597100  -2.895680 -38.407800   0.016079   0.001439 -25.579600   0.009863   0.004313 -32.503500   0.776838  -1.218010 -48.759100   0.011368   0.006030 -32.479100   0.004484   0.004977   7.350170   1.669270   9.298880  70.798900  21.020400  -5.271980  -0.727898  -4.553190  13.606500 -15.965200 -11.949200  -4.848480 -36.922300  29.692100  62.948000  31.728300   0.007267  -0.011232  10.849300  -0.006359  -0.001728  30.125400   6.985930  11.837900  25.241300  -0.001171   0.001496  17.668900  -0.003682   0.000527  28.178800   3.982040   7.372630  35.447900  -0.001882  -0.004446  23.608200  -0.003518  -0.001778  27.644400   1.398220   2.665950  30.038900  -0.002738   0.002395  20.006000   0.003297   0.002065  35.530000   0.109448   0.153144  53.295100  -0.002802  -0.004894  35.494600  -0.007436   0.006840   1.648120   7.526730   3.121450   0.451116   0.406029   7.987620  -1.754840  -4.191240   1.516760   0.000000   0.000000   0.000000   0.993046   6.809940  -1.713860   0.087126   1.182520  -8.478200  -0.160907  -3.768960  -0.301206   0.000000   0.000000   0.000000
 -0.618449  89.559000   0.705817  -2.077440  -4.775900  -3.823870   0.529129   3.398270   0.061259   1.057400   6.796950   0.091298   1.967470   0.253909  -0.005764   3.234770   0.508983   5.731330  -3.150300   0.073874   3.261490 -74.110200  26.223900  -1.223910  -2.616210  -7.157890 -17.010900  15.742500 -12.737500   6.653520  39.095800  32.621000 -58.469800 -32.627100  -0.005317  -0.003338 -11.300000   0.002424  -0.041453 -32.366500   7.912800 -12.251700 -27.178300   0.025969  -0.013077 -19.022700   0.020049  -0.004782 -28.722100   1.602000  -2.893040 -40.570200   0.055432  -0.006216 -27.019800   0.036134   0.009474 -28.625600   1.597130  -2.895680 -38.407800   0.027364  -0.007930 -25.579600   0.018350   0.000196 -32.503500   0.776862  -1.218050 -48.763300   0.026626   0.001033 -32.479100   0.015027   0.005220   7.366710   1.652060   9.314790  70.790300  21.062700  -5.273490  -0.724448  -4.571450  13.597100 -15.965000 -11.949100  -4.854620 -36.917900  29.699700  62.977300  31.728300   0.007262  -0.011232  10.849300  -0.006354  -0.001730  30.141100   6.992340  11.841100  25.255300  -0.001170   0.001492  17.678700  -0.003683   0.000530  28.178700   3.981850   7.374140  35.465500  -0.001877  -0.004450  23.620000  -0.003520  -0.001780  27.644400   1.399660   2.669500  30.059800  -0.002734   0.002392  20.019900   0.003296   0.002062  35.542100   0.109421   0.153105  53.313200  -0.002801  -0.004893  35.506600  -0.007434   0.006839   1.659250   7.524180   3.125790   0.450285   0.427264   7.987520  -1.778080  -4.194330   1.504490  -0.000000   0.000000   0.000000   0.999556   6.802720  -1.714330   0.089253   1.202920  -8.478110  -0.170898  -3.776350  -0.309250   0.000000   0.000000  -0.000000
 -0.645616  89.559000   0.705724  -2.076590  -4.786610  -3.807920   0.529142   3.411680   0.062847   1.057350   6.823790   0.094309   1.977780   0.253719  -0.005763   3.249450   0.502167   5.686210  -3.160690   0.055078   3.258660 -74.086400  26.266900  -1.241260  -2.618060  -7.170020 -17.028600  15.742200 -12.737100   6.653350  39.096100  32.621200 -58.470000 -32.627100  -0.005338  -0.003340 -11.299900   0.002413  -0.046301 -32.367200   7.912740 -12.246500 -27.178300   0.034867  -0.028801 -19.022900   0.028099  -0.014286 -28.722100   1.602040  -2.893040 -40.570200   0.078320  -0.026559 -27.019800   0.054528   0.001885 -28.625500   1.597170  -2.895680 -38.407800   0.039318  -0.022287 -25.579600   0.029224  -0.006714 -32.503500   0.776911  -1.218140 -48.767500   0.048318  -0.007633 -32.479100   0.030556   0.005463   7.404450   1.616670   9.347160  70.767700  21.131700  -5.276030  -0.718725  -4.600550  13.583800 -15.956900 -11.949000  -4.860750 -36.910900  29.707600  63.020300  31.728300   0.007256  -0.011231  10.849400  -0.006349  -0.001732  30.161700   7.003130  11.849200  25.273100  -0.001164   0.001483  17.691100  -0.003687   0.000536  28.178600   3.981640   7.378000  35.488100  -0.001868  -0.004458  23.635100  -0.003524  -0.001787  27.644300   1.402390   2.675740  30.083100  -0.002722   0.002381  20.035400   0.003293   0.002052  35.558600   0.109367   0.153028  53.338000  -0.002801  -0.004891  35.523100  -0.007430   0.006836   1.679220   7.521610   3.134010   0.450747   0.448500   7.986690  -1.816720  -4.197440   1.482200  -0.000000   0.000000   0.000000   1.014020   6.795480  -1.717740   0.089968   1.223340  -8.478020  -0.188458  -3.787580  -0.321356   0.000000   0.000000  -0.000000
 -0.668022  89.559000   0.705580  -2.076050  -4.799410  -3.790710   0.529668   3.422860   0.066520   1.058200   6.846180   0.101487   1.990340   0.253795  -0.005777   3.269540   0.502324   5.636250  -3.166800   0.039315   3.247580 -74.066700  26.306200  -1.256840  -2.616980  -7.186260 -17.037100  15.742200 -12.736900   6.653110  39.100600  32.622900 -58.464500 -32.621900  -0.005332  -0.003344 -11.299900   0.002398  -0.037337 -32.362000   7.912530 -12.250500 -27.174100   0.033171  -0.037987 -19.020800   0.027669  -0.020586 -28.722000   1.602060  -2.898070 -40.560100   0.073437  -0.037984 -27.013100   0.053497  -0.008093 -28.625400   1.597180  -2.900720 -38.399500   0.040099  -0.032874 -25.574100   0.032010  -0.013770 -32.499500   0.776980  -1.218260 -48.761200   0.058800  -0.017316 -32.475100   0.039959   0.005403   7.455280   1.574310   9.385020  70.744400  21.195200  -5.310450  -0.713732  -4.620910  13.578700 -15.933200 -11.944800  -4.858140 -36.904700  29.701300  63.045500  31.723000   0.007258  -0.011225  10.849400  -0.006354  -0.001732  30.165400   7.014220  11.865700  25.277500  -0.001149   0.001473  17.694200  -0.003695   0.000545  28.177900   3.983020   7.385880  35.494000  -0.001863  -0.004472  23.639000  -0.003531  -0.001799  27.642900   1.406130   2.682960  30.086000  -0.002699   0.002359  20.037200   0.003285   0.002032  35.564600   0.109294   0.152926  53.347100  -0.002802  -0.004893  35.529200  -0.007424   0.006827   1.697770   7.532040   3.143600   0.454107   0.440896   7.980590  -1.847750  -4.187100   1.460690   0.000000   0.000000  -0.000000   1.034320   6.810340  -1.729530   0.086841   1.223360  -8.478380  -0.204798  -3.793710  -0.327389   0.000000   0.000000   0.000000
